<svg xmlns="http://www.w3.org/2000/svg" preserveAspectRatio="xMidYMid" width="19.13" height="16.594"><path d="M10.917.002a8.24 8.24 0 0 0-5.89 2.379 8.34 8.34 0 0 0-1.329 1.695A8.174 8.174 0 0 0 2.64 7.152l-.672-3.187a1 1 0 1 0-1.957.413l1.144 5.423a1.002 1.002 0 0 0 1.289.744l5.268-1.721a.999.999 0 0 0-.621-1.901l-2.519.823a6.373 6.373 0 0 1 .848-2.653 6.276 6.276 0 0 1 1.01-1.286 6.251 6.251 0 0 1 4.469-1.805 6.254 6.254 0 0 1 4.437 1.887 6.253 6.253 0 0 1 1.804 4.469 6.234 6.234 0 0 1-1.885 4.433 6.314 6.314 0 0 1-7.066 1.219 1.006 1.006 0 0 0-1.329.483 1 1 0 0 0 .484 1.329 8.32 8.32 0 0 0 10.696-3.386 8.243 8.243 0 0 0 1.1-4.06 8.239 8.239 0 0 0-2.378-5.889A8.24 8.24 0 0 0 10.917.002z" fill="#30363c" fill-rule="evenodd"/></svg>