<svg xmlns="http://www.w3.org/2000/svg" xmlns:xlink="http://www.w3.org/1999/xlink" width="20" height="16" preserveAspectRatio="xMidYMid" viewBox="0 0 20 16"><path d="M2.359,3.252 C2.384,3.004 2.291,2.760 2.107,2.593 L0.240,0.326 L0.240,-0.012 L6.038,-0.012 L10.519,9.892 L14.459,-0.012 L19.986,-0.012 L19.986,0.326 L18.389,1.869 C18.252,1.975 18.183,2.148 18.212,2.320 L18.212,13.655 C18.183,13.827 18.252,14.001 18.389,14.106 L19.948,15.649 L19.948,15.988 L12.106,15.988 L12.106,15.649 L13.721,14.069 C13.880,13.909 13.880,13.862 13.880,13.618 L13.880,4.455 L9.389,15.950 L8.782,15.950 L3.554,4.455 L3.554,12.159 C3.511,12.483 3.618,12.809 3.844,13.044 L5.944,15.611 L5.944,15.950 L-0.012,15.950 L-0.012,15.611 L2.089,13.044 C2.313,12.809 2.414,12.481 2.359,12.159 L2.359,3.252 Z" class="medium-social"/></svg>