<svg xmlns="http://www.w3.org/2000/svg" xmlns:xlink="http://www.w3.org/1999/xlink" width="18" height="14" preserveAspectRatio="xMidYMid" viewBox="0 0 18 14"><path d="M18.000,1.657 C17.337,1.938 16.626,2.128 15.879,2.213 C16.641,1.776 17.227,1.083 17.503,0.258 C16.789,0.663 15.999,0.957 15.157,1.116 C14.484,0.429 13.524,-0.001 12.462,-0.001 C10.423,-0.001 8.769,1.582 8.769,3.534 C8.769,3.811 8.802,4.080 8.865,4.339 C5.795,4.192 3.074,2.785 1.253,0.646 C0.935,1.168 0.753,1.776 0.753,2.423 C0.753,3.649 1.405,4.731 2.396,5.365 C1.790,5.347 1.221,5.188 0.723,4.923 C0.723,4.938 0.723,4.953 0.723,4.967 C0.723,6.680 1.996,8.108 3.685,8.433 C3.375,8.514 3.049,8.557 2.712,8.557 C2.474,8.557 2.243,8.535 2.017,8.493 C2.487,9.898 3.851,10.920 5.467,10.948 C4.203,11.896 2.611,12.461 0.881,12.461 C0.583,12.461 0.289,12.444 -0.000,12.412 C1.634,13.414 3.575,13.999 5.661,13.999 C12.453,13.999 16.168,8.614 16.168,3.944 C16.168,3.790 16.164,3.638 16.157,3.487 C16.879,2.988 17.505,2.366 18.000,1.657 Z" class="twitter-social"/></svg>