<svg xmlns="http://www.w3.org/2000/svg" xmlns:xlink="http://www.w3.org/1999/xlink" preserveAspectRatio="xMidYMid" width="22" height="12" viewBox="0 0 22 12">
  <path d="M18.283,5.883 C18.283,5.883 21.184,2.068 21.473,0.814 C21.569,0.366 21.357,0.115 20.858,0.115 C20.858,0.115 19.186,0.115 18.340,0.115 C17.764,0.115 17.552,0.348 17.380,0.688 C17.380,0.688 16.019,3.391 14.363,5.095 C13.831,5.646 13.561,5.811 13.267,5.811 C13.031,5.811 12.921,5.627 12.921,5.131 L12.921,0.778 C12.921,0.169 12.845,-0.010 12.307,-0.010 L8.271,-0.010 C7.964,-0.010 7.772,0.157 7.772,0.384 C7.772,0.957 8.713,1.087 8.713,2.641 L8.713,5.847 C8.713,6.492 8.675,6.743 8.348,6.743 C7.483,6.743 5.427,3.967 4.274,0.814 C4.044,0.169 3.794,-0.010 3.140,-0.010 L0.623,-0.010 C0.258,-0.010 -0.011,0.222 -0.011,0.563 C-0.011,1.190 0.777,4.092 3.871,7.979 C5.946,10.594 8.675,12.009 11.134,12.009 C12.633,12.009 12.998,11.776 12.998,11.185 L12.998,9.179 C12.998,8.677 13.210,8.462 13.517,8.462 C13.863,8.462 14.473,8.566 15.900,9.877 C17.591,11.382 17.706,12.009 18.629,12.009 L21.453,12.009 C21.742,12.009 22.011,11.884 22.011,11.436 C22.011,10.845 21.184,9.788 19.916,8.534 C19.397,7.889 18.552,7.191 18.283,6.868 C17.898,6.492 18.014,6.277 18.283,5.883 Z" class="vk-social"/>
</svg>
