<svg xmlns="http://www.w3.org/2000/svg" xmlns:xlink="http://www.w3.org/1999/xlink" preserveAspectRatio="xMidYMid" width="18" height="12" viewBox="0 0 18 12">
  <path d="M17.820,9.405 C17.820,9.405 17.644,10.581 17.105,11.099 C16.420,11.778 15.653,11.781 15.301,11.821 C12.782,11.994 9.000,11.999 9.000,11.999 C9.000,11.999 4.320,11.959 2.880,11.828 C2.479,11.757 1.580,11.778 0.895,11.099 C0.356,10.581 0.180,9.405 0.180,9.405 C0.180,9.405 -0.000,8.024 -0.000,6.644 L-0.000,5.349 C-0.000,3.969 0.180,2.588 0.180,2.588 C0.180,2.588 0.356,1.413 0.895,0.895 C1.580,0.215 2.347,0.212 2.699,0.172 C5.218,-0.001 8.996,-0.001 8.996,-0.001 L9.004,-0.001 C9.004,-0.001 12.782,-0.001 15.301,0.172 C15.653,0.212 16.420,0.215 17.105,0.895 C17.644,1.413 17.820,2.588 17.820,2.588 C17.820,2.588 18.000,3.969 18.000,5.349 L18.000,6.644 C18.000,8.024 17.820,9.405 17.820,9.405 ZM7.141,3.418 L7.142,8.213 L12.005,5.824 L7.141,3.418 Z" class="youtube-social"/>
</svg>
