<svg xmlns="http://www.w3.org/2000/svg" xmlns:xlink="http://www.w3.org/1999/xlink" id="Слой_1" width="14" height="14" x="0" y="0" enable-background="new 0 0 14 14" version="1.1" viewBox="0 0 14 14" xml:space="preserve"><path fill="#898E97" d="M8.414,7l5.293-5.293c0.391-0.391,0.391-1.023,0-1.414s-1.023-0.391-1.414,0L7,5.586L1.708,0.293	c-0.391-0.391-1.023-0.391-1.414,0s-0.391,1.023,0,1.414L5.586,7l-5.293,5.293c-0.391,0.391-0.391,1.023,0,1.414	C0.489,13.902,0.745,14,1,14s0.512-0.098,0.707-0.293L7,8.414l5.292,5.293C12.488,13.902,12.744,14,13,14s0.512-0.098,0.707-0.293	c0.391-0.391,0.391-1.023,0-1.414L8.414,7z"/></svg>