<svg xmlns="http://www.w3.org/2000/svg" xmlns:xlink="http://www.w3.org/1999/xlink" id="Слой_52" x="0" y="0" enable-background="new 0 0 20 20" version="1.1" viewBox="0 0 20 20" xml:space="preserve"><g><path fill="#30363C" d="M18,2h-2V1c0-0.6-0.4-1-1-1s-1,0.4-1,1v1h-3V1c0-0.6-0.4-1-1-1S9,0.4,9,1v1H6V1c0-0.6-0.4-1-1-1S4,0.4,4,1 v1H2C0.9,2,0,2.9,0,4v14c0,1.1,0.9,2,2,2h16c1.1,0,2-0.9,2-2V4C20,2.9,19.1,2,18,2z M18,18H2V4h2v1c0,0.6,0.4,1,1,1s1-0.4,1-1V4h3 v1c0,0.6,0.4,1,1,1s1-0.4,1-1V4h3v1c0,0.6,0.4,1,1,1s1-0.4,1-1V4h2V18z"/><rect width="3" height="2" x="3.4" y="8" fill="#30363C"/><rect width="3" height="2" x="8.4" y="8" fill="#30363C"/><rect width="3" height="2" x="13.4" y="8" fill="#30363C"/><rect width="3" height="2" x="3.4" y="11" fill="#30363C"/><rect width="3" height="2" x="8.4" y="11" fill="#30363C"/><rect width="3" height="2" x="13.4" y="11" fill="#30363C"/><rect width="3" height="2" x="3.4" y="14" fill="#30363C"/><rect width="3" height="2" x="8.4" y="14" fill="#30363C"/><rect width="3" height="2" x="13.4" y="14" fill="#30363C"/></g></svg>