<svg xmlns="http://www.w3.org/2000/svg" xmlns:xlink="http://www.w3.org/1999/xlink" id="Слой_1" width="50" height="50" x="0" y="0" enable-background="new 0 0 50 50" version="1.1" viewBox="0 0 50 50" xml:space="preserve"><path fill="#898E97" d="M25.745,3.58c11.52,0,20.891,9.371,20.891,20.89c0,11.517-9.371,20.887-20.889,20.887	c-2.882,0-5.284-0.368-7.608-0.725c-2.085-0.319-4.055-0.621-6.151-0.621c-2.48,0-4.76,0.427-7.142,1.342	c1.971-5.14,1.365-9.101,0.726-13.29C5.217,29.74,4.85,27.34,4.85,24.459C4.85,12.946,14.224,3.58,25.745,3.58 M25.745,1.58	C13.103,1.58,2.85,11.817,2.85,24.459c0,8.474,3.018,13.021-0.004,20.515c-0.609,1.448,0.179,2.604,1.404,2.604	c0.303,0,0.633-0.071,0.975-0.225c2.496-1.007,4.665-1.342,6.763-1.342c4.2,0,8.109,1.346,13.76,1.346	c12.644,0,22.889-10.244,22.889-22.887C48.636,11.828,38.388,1.58,25.745,1.58L25.745,1.58z"/><g><path fill="#898E97" d="M24,31.265c-0.553,0-1-0.448-1-1V30c0-0.059,0.005-0.117,0.015-0.174c0.182-2.608,1.978-3.971,3.572-5.18 c1.965-1.49,3.82-2.898,3.574-6.596c-0.24-3.609-3.474-5.669-6.425-5.563c-2.563,0.085-5.301,1.792-5.301,6.329 c0,0.552-0.447,1-1,1s-1-0.448-1-1c0-5.586,3.634-8.208,7.234-8.328c3.886-0.117,8.166,2.613,8.487,7.43 c0.317,4.773-2.277,6.741-4.362,8.322C26.063,27.555,25,28.451,25,30.236v0.028C25,30.816,24.553,31.265,24,31.265z"/><path fill="#898E97" d="M24.493,39.792c-1.63,0-2.955-1.325-2.955-2.955c0-1.629,1.325-2.954,2.955-2.954s2.955,1.325,2.955,2.954 C27.448,38.467,26.123,39.792,24.493,39.792z M24.493,35.883c-0.526,0-0.955,0.428-0.955,0.954s0.429,0.955,0.955,0.955 s0.955-0.429,0.955-0.955S25.02,35.883,24.493,35.883z"/></g></svg>