<svg xmlns="http://www.w3.org/2000/svg" xmlns:xlink="http://www.w3.org/1999/xlink" id="Слой_2" width="50" height="50" x="0" y="0" enable-background="new 0 0 50 50" version="1.1" viewBox="0 0 50 50" xml:space="preserve"><path fill="#898E97" d="M32.65,25.619c7.494,0,13.591-5.634,13.591-12.56c0-6.925-6.097-12.56-13.591-12.56H13.146	c-0.552,0-1,0.448-1,1v22.12H6.663c-0.552,0-1,0.448-1,1s0.448,1,1,1h5.483v7.896H6.663c-0.552,0-1,0.447-1,1s0.448,1,1,1h5.483	V48.25c0,0.553,0.448,1,1,1s1-0.447,1-1V35.515h21.853c0.553,0,1-0.447,1-1s-0.447-1-1-1H14.146v-7.896H32.65z M14.146,2.5H32.65	c6.392,0,11.591,4.737,11.591,10.56S39.042,23.62,32.65,23.62H14.146V2.5z"/></svg>