<?xml version="1.0" encoding="utf-8"?>
<!-- Generator: Adobe Illustrator 16.0.0, SVG Export Plug-In . SVG Version: 6.00 Build 0)  -->
<!DOCTYPE svg PUBLIC "-//W3C//DTD SVG 1.1//EN" "http://www.w3.org/Graphics/SVG/1.1/DTD/svg11.dtd">
<svg version="1.1" id="Слой_2" xmlns="http://www.w3.org/2000/svg" xmlns:xlink="http://www.w3.org/1999/xlink" x="0px" y="0px"
	 width="50px" height="50px" viewBox="0 0 50 50" enable-background="new 0 0 50 50" xml:space="preserve">
<path fill="#898E97" d="M46.168,29.884c-1.221-0.391-1.992-0.557-2.673-0.702c-0.618-0.134-1.106-0.238-1.8-0.486
	c-0.69-0.246-1.108-0.547-1.242-0.894c-0.266-0.686,0.386-1.896,0.959-2.963c0.164-0.306,0.324-0.605,0.468-0.896
	c0.942-1.909,2.195-6.004,0.922-9.239c-1.223-3.106-3.716-4.841-7.019-4.886c-1.273-0.007-2.42,0.27-3.439,0.779
	c-0.123-0.618-0.291-1.217-0.514-1.784C30.029,4.23,26.352,1.668,21.473,1.6l-0.19-0.001c-4.668,0-8.38,2.63-10.183,7.214
	c-1.655,4.196-0.431,10.12,1.406,13.848c0.22,0.445,0.467,0.907,0.719,1.377c0.941,1.753,2.009,3.741,1.51,5.034
	c-0.266,0.691-1.023,1.262-2.25,1.699c-1.101,0.391-1.909,0.563-2.845,0.768c-1.042,0.225-2.224,0.479-4.089,1.076
	C1.972,33.757,0,36.529,0,40.423v5.563c0,0.553,0.448,1,1,1h40.928c0.553,0,1-0.447,1-1v-5.563c0-0.192-0.025-0.371-0.035-0.559H49
	c0.553,0,1-0.447,1-1V35.27C50,32.585,48.641,30.673,46.168,29.884z M28.236,29.141c-0.012-0.023-0.031-0.045-0.041-0.068
	c-0.498-1.293,0.568-3.283,1.511-5.038c0.001-0.001,0.001-0.003,0.002-0.004c0.133,0.266,0.276,0.537,0.426,0.815
	c0.572,1.066,1.222,2.275,0.957,2.959c-0.133,0.346-0.551,0.645-1.241,0.891C29.23,28.915,28.771,29.021,28.236,29.141z
	 M40.928,44.984H2v-4.563c0-3.037,1.399-5.023,4.16-5.904c1.773-0.565,2.904-0.811,3.902-1.024c0.962-0.207,1.871-0.404,3.094-0.839
	c1.8-0.643,2.959-1.604,3.445-2.864c0.829-2.147-0.469-4.566-1.614-6.699c-0.241-0.448-0.478-0.889-0.688-1.314
	c-1.184-2.402-2.988-8.051-1.339-12.231C14.469,5.711,17.424,3.6,21.282,3.6h0.162c5.144,0.072,7.475,3.272,8.525,5.945
	c1.648,4.188-0.154,9.831-1.34,12.231c-0.209,0.425-0.445,0.864-0.686,1.312c-1.146,2.134-2.442,4.555-1.613,6.704
	c0.484,1.258,1.645,2.222,3.443,2.862c1.224,0.435,2.133,0.632,3.096,0.839c0.997,0.215,2.128,0.459,3.902,1.024
	c2.758,0.881,4.155,2.867,4.155,5.904L40.928,44.984L40.928,44.984z M48,37.864h-5.404c-0.695-2.55-2.482-4.38-5.215-5.25
	c-1.867-0.599-3.049-0.853-4.091-1.076c-0.937-0.203-1.745-0.377-2.847-0.769c-0.08-0.028-0.143-0.063-0.219-0.094
	c0.099-0.031,0.19-0.061,0.295-0.098c1.265-0.449,2.084-1.143,2.438-2.057c0.594-1.539-0.285-3.179-1.061-4.624
	c-0.153-0.286-0.306-0.567-0.438-0.84c-0.206-0.417-0.397-0.911-0.571-1.428c1.071-2.549,1.82-5.816,1.704-8.859
	c0.882-0.641,1.938-0.978,3.163-0.954c3.127,0.042,4.546,1.991,5.188,3.618c0.945,2.403,0.008,5.875-0.854,7.622
	c-0.134,0.27-0.282,0.549-0.437,0.833c-0.777,1.447-1.658,3.088-1.063,4.629c0.353,0.916,1.173,1.606,2.438,2.059
	c0.813,0.289,1.412,0.42,2.048,0.557s1.356,0.293,2.485,0.652c1.619,0.518,2.44,1.689,2.44,3.482L48,37.864L48,37.864z"/>
</svg>
