<svg xmlns="http://www.w3.org/2000/svg" preserveAspectRatio="xMidYMid" width="22" height="22"><path d="M21.93 15.536c-.053 1.171-.239 1.97-.511 2.67a5.389 5.389 0 0 1-1.268 1.947 5.382 5.382 0 0 1-1.948 1.269c-.699.272-1.499.457-2.669.511-1.173.054-1.548.066-4.534.066-2.987 0-3.361-.012-4.534-.066-1.171-.054-1.97-.239-2.67-.511a5.379 5.379 0 0 1-1.947-1.269A5.379 5.379 0 0 1 .58 18.206c-.272-.7-.458-1.499-.511-2.67-.054-1.173-.066-1.547-.066-4.534 0-2.986.012-3.361.066-4.534.053-1.17.239-1.97.511-2.669a5.382 5.382 0 0 1 1.269-1.948A5.376 5.376 0 0 1 3.796.583c.7-.272 1.499-.458 2.67-.512C7.639.018 8.013.006 11 .006c2.986 0 3.361.012 4.534.065 1.17.054 1.97.24 2.669.512a5.38 5.38 0 0 1 1.948 1.268 5.392 5.392 0 0 1 1.268 1.948c.272.699.458 1.499.511 2.669.054 1.173.067 1.548.067 4.534 0 2.987-.013 3.361-.067 4.534zm-1.979-8.978c-.049-1.072-.228-1.654-.379-2.041a3.403 3.403 0 0 0-.822-1.265 3.408 3.408 0 0 0-1.265-.822c-.387-.151-.969-.33-2.042-.379-1.159-.053-1.507-.064-4.443-.064-2.937 0-3.284.011-4.444.064-1.072.049-1.655.228-2.042.379-.513.199-.88.438-1.264.822a3.418 3.418 0 0 0-.823 1.265c-.151.387-.33.969-.379 2.042-.053 1.159-.064 1.507-.064 4.443s.011 3.284.064 4.444c.049 1.072.228 1.655.379 2.042.2.514.438.879.823 1.265.384.384.751.623 1.264.822.387.15.97.33 2.042.379 1.159.053 1.507.064 4.444.064 2.936 0 3.284-.011 4.443-.064 1.073-.049 1.655-.229 2.042-.379.514-.199.88-.438 1.265-.822.385-.386.623-.751.822-1.265.151-.387.33-.97.379-2.042.053-1.16.064-1.508.064-4.444s-.011-3.284-.064-4.444zm-3.081-.106a1.32 1.32 0 1 1 0-2.64 1.32 1.32 0 0 1 0 2.64zM11 16.649a5.647 5.647 0 1 1 0-11.293 5.647 5.647 0 0 1 0 11.293zm0-9.312a3.665 3.665 0 1 0-.001 7.33A3.665 3.665 0 0 0 11 7.338z" class="instagram-social"/></svg>