<svg xmlns="http://www.w3.org/2000/svg" preserveAspectRatio="xMidYMid" width="18" height="14"><path d="M18 1.657a7.638 7.638 0 0 1-2.121.556A3.58 3.58 0 0 0 17.503.258a7.614 7.614 0 0 1-2.346.858 3.765 3.765 0 0 0-2.695-1.117c-2.039 0-3.693 1.583-3.693 3.535 0 .277.033.546.096.805-3.07-.147-5.791-1.554-7.612-3.693-.318.522-.5 1.13-.5 1.777 0 1.226.652 2.308 1.643 2.942a3.795 3.795 0 0 1-1.673-.442v.044c0 1.713 1.273 3.141 2.962 3.466a3.844 3.844 0 0 1-1.668.06c.47 1.405 1.834 2.427 3.45 2.455a7.622 7.622 0 0 1-4.586 1.513c-.298 0-.592-.017-.881-.049a10.8 10.8 0 0 0 5.661 1.587c6.792 0 10.507-5.385 10.507-10.055 0-.154-.004-.306-.011-.457A7.335 7.335 0 0 0 18 1.657z" class="twitter-social"/></svg>