<svg xmlns="http://www.w3.org/2000/svg" preserveAspectRatio="xMidYMid" width="22" height="12"><path d="M18.283 5.883s2.901-3.815 3.19-5.069c.096-.448-.116-.699-.615-.699H18.34c-.576 0-.788.233-.96.573 0 0-1.361 2.703-3.017 4.407-.532.551-.802.716-1.096.716-.236 0-.346-.184-.346-.68V.778c0-.609-.076-.788-.614-.788H8.271c-.307 0-.499.167-.499.394 0 .573.941.703.941 2.257v3.206c0 .645-.038.896-.365.896-.865 0-2.921-2.776-4.074-5.929-.23-.645-.48-.824-1.134-.824H.623c-.365 0-.634.232-.634.573 0 .627.788 3.529 3.882 7.416 2.075 2.615 4.804 4.03 7.263 4.03 1.499 0 1.864-.233 1.864-.824V9.179c0-.502.212-.717.519-.717.346 0 .956.104 2.383 1.415 1.691 1.505 1.806 2.132 2.729 2.132h2.824c.289 0 .558-.125.558-.573 0-.591-.827-1.648-2.095-2.902-.519-.645-1.364-1.343-1.633-1.666-.385-.376-.269-.591 0-.985z" class="vk-social"/></svg>