<svg xmlns="http://www.w3.org/2000/svg" preserveAspectRatio="xMidYMid" width="18" height="12"><path d="M17.82 9.405s-.176 1.176-.715 1.694c-.685.679-1.452.682-1.804.722-2.519.173-6.301.178-6.301.178s-4.68-.04-6.12-.171c-.401-.071-1.3-.05-1.985-.729C.356 10.581.18 9.405.18 9.405S0 8.024 0 6.644V5.349c0-1.38.18-2.761.18-2.761S.356 1.413.895.895C1.58.215 2.347.212 2.699.172c2.519-.173 6.297-.173 6.297-.173h.008s3.778 0 6.297.173c.352.04 1.119.043 1.804.723.539.518.715 1.693.715 1.693S18 3.969 18 5.349v1.295c0 1.38-.18 2.761-.18 2.761zM7.141 3.418l.001 4.795 4.863-2.389-4.864-2.406z" class="youtube-social"/></svg>