<svg xmlns="http://www.w3.org/2000/svg" xmlns:xlink="http://www.w3.org/1999/xlink" preserveAspectRatio="xMidYMid" width="20" height="20" viewBox="0 0 20 20">
  <defs>
    <style>
      .cls-1 {
        fill: #898e97;
        fill-rule: evenodd;
      }
    </style>
  </defs>
  <path d="M17.986,19.986 L1.986,19.986 C0.882,19.986 -0.014,19.091 -0.014,17.986 L-0.014,3.986 C-0.014,2.882 0.882,1.986 1.986,1.986 L3.986,1.986 L3.986,0.986 C3.986,0.433 4.434,-0.014 4.986,-0.014 C5.539,-0.014 5.986,0.433 5.986,0.986 L5.986,1.986 L8.986,1.986 L8.986,0.986 C8.986,0.433 9.434,-0.014 9.986,-0.014 C10.539,-0.014 10.986,0.433 10.986,0.986 L10.986,1.986 L13.986,1.986 L13.986,0.986 C13.986,0.433 14.434,-0.014 14.986,-0.014 C15.539,-0.014 15.986,0.433 15.986,0.986 L15.986,1.986 L17.986,1.986 C19.091,1.986 19.986,2.882 19.986,3.986 L19.986,17.986 C19.986,19.091 19.091,19.986 17.986,19.986 ZM17.986,3.986 L15.986,3.986 L15.986,4.986 C15.986,5.539 15.539,5.986 14.986,5.986 C14.434,5.986 13.986,5.539 13.986,4.986 L13.986,3.986 L10.986,3.986 L10.986,4.986 C10.986,5.539 10.539,5.986 9.986,5.986 C9.434,5.986 8.986,5.539 8.986,4.986 L8.986,3.986 L5.986,3.986 L5.986,4.986 C5.986,5.539 5.539,5.986 4.986,5.986 C4.434,5.986 3.986,5.539 3.986,4.986 L3.986,3.986 L1.986,3.986 L1.986,17.986 L17.986,17.986 L17.986,3.986 ZM6.425,9.986 L3.425,9.986 L3.425,7.986 L6.425,7.986 L6.425,9.986 ZM6.425,12.986 L3.425,12.986 L3.425,10.986 L6.425,10.986 L6.425,12.986 ZM6.425,15.986 L3.425,15.986 L3.425,13.986 L6.425,13.986 L6.425,15.986 ZM11.425,9.986 L8.425,9.986 L8.425,7.986 L11.425,7.986 L11.425,9.986 ZM11.425,12.986 L8.425,12.986 L8.425,10.986 L11.425,10.986 L11.425,12.986 ZM11.425,15.986 L8.425,15.986 L8.425,13.986 L11.425,13.986 L11.425,15.986 ZM16.425,9.986 L13.425,9.986 L13.425,7.986 L16.425,7.986 L16.425,9.986 ZM16.425,12.986 L13.425,12.986 L13.425,10.986 L16.425,10.986 L16.425,12.986 ZM16.425,15.986 L13.425,15.986 L13.425,13.986 L16.425,13.986 L16.425,15.986 Z" class="cls-1"/>
</svg>
