<svg xmlns="http://www.w3.org/2000/svg" xmlns:xlink="http://www.w3.org/1999/xlink" width="160" height="37" version="1.1" viewBox="0 0 160 37"><title>logo</title><desc>Created with Sketch.</desc><g id="Page-1" fill="none" fill-rule="evenodd" stroke="none" stroke-width="1"><g id="logo" transform="translate(0.000000, -1.000000)"><g id="income" fill="#FFF" transform="translate(63.000000, 8.000000)"><path id="Combined-Shape" d="M94.525,13.149 C92.876,14.16 90.516,14.666 87.446,14.666 L86.955,14.666 L86.895,15.85 C86.895,17.143 87.2,18.151 87.811,18.877 C88.422,19.601 89.369,19.964 90.65,19.964 C91.276,19.964 91.919,19.875 92.58,19.698 C93.241,19.52 94.063,19.195 95.047,18.721 L95.047,20.882 C94.113,21.316 93.288,21.619 92.573,21.792 C91.858,21.964 91.068,22.051 90.203,22.051 C88.375,22.051 86.939,21.513 85.896,20.438 C84.853,19.363 84.331,17.872 84.331,15.968 C84.331,14.113 84.701,12.335 85.442,10.632 C86.182,8.931 87.163,7.606 88.385,6.659 C89.607,5.712 90.954,5.238 92.424,5.238 C93.944,5.238 95.086,5.566 95.852,6.222 C96.617,6.878 96.999,7.794 96.999,8.967 C96.999,10.743 96.175,12.138 94.525,13.149 Z M93.981,7.872 C93.619,7.527 93.05,7.355 92.275,7.355 C91.251,7.355 90.29,7.818 89.391,8.746 C88.492,9.673 87.804,10.961 87.327,12.609 L87.506,12.609 C89.771,12.609 91.507,12.315 92.714,11.728 C93.922,11.141 94.525,10.29 94.525,9.175 C94.525,8.652 94.344,8.218 93.981,7.872 Z"/><path id="Path" d="M78.683,21.755 L76.149,21.755 L78.355,11.514 C78.554,10.487 78.653,9.767 78.653,9.352 C78.653,8.741 78.482,8.25 78.139,7.88 C77.796,7.51 77.257,7.325 76.522,7.325 C75.717,7.325 74.922,7.611 74.137,8.184 C73.352,8.755 72.664,9.567 72.073,10.618 C71.482,11.669 71.032,12.914 70.724,14.355 L69.13,21.755 L66.626,21.755 L68.832,11.514 C69.011,10.586 69.1,9.92 69.1,9.515 C69.1,8.825 68.946,8.287 68.638,7.902 C68.33,7.518 67.804,7.325 67.058,7.325 C66.224,7.325 65.411,7.621 64.622,8.213 C63.831,8.805 63.136,9.651 62.535,10.751 C61.934,11.851 61.469,13.176 61.141,14.725 L59.636,21.755 L57.132,21.755 L60.62,5.534 L62.692,5.534 L62.364,8.538 L62.513,8.538 C63.377,7.364 64.239,6.521 65.098,6.008 C65.958,5.495 66.844,5.238 67.759,5.238 C68.881,5.238 69.746,5.559 70.352,6.2 C70.958,6.842 71.316,7.734 71.425,8.879 L71.544,8.879 C72.398,7.646 73.308,6.731 74.272,6.133 C75.235,5.536 76.209,5.238 77.192,5.238 C78.454,5.238 79.43,5.574 80.121,6.245 C80.812,6.916 81.157,7.892 81.157,9.175 C81.157,9.846 81.048,10.724 80.829,11.81 L78.683,21.755 Z"/><path id="Combined-Shape" d="M50.843,20.645 C49.621,21.543 48.24,21.992 46.7,21.992 C44.792,21.992 43.297,21.434 42.214,20.319 C41.131,19.204 40.59,17.68 40.59,15.746 C40.59,13.872 40.952,12.108 41.677,10.455 C42.403,8.803 43.381,7.535 44.614,6.651 C45.845,5.769 47.212,5.327 48.712,5.327 C50.6,5.327 52.09,5.882 53.183,6.992 C54.276,8.102 54.822,9.629 54.822,11.572 C54.822,13.427 54.465,15.179 53.749,16.827 C53.034,18.474 52.065,19.747 50.843,20.645 Z M51.298,8.472 C50.677,7.766 49.835,7.413 48.772,7.413 C47.688,7.413 46.717,7.779 45.858,8.508 C44.998,9.239 44.333,10.253 43.861,11.55 C43.389,12.848 43.153,14.291 43.153,15.879 C43.153,17.172 43.468,18.171 44.099,18.877 C44.73,19.582 45.637,19.935 46.819,19.935 C47.852,19.935 48.781,19.574 49.606,18.854 C50.431,18.134 51.074,17.11 51.536,15.783 C51.998,14.456 52.229,12.94 52.229,11.232 C52.229,10.097 51.918,9.178 51.298,8.472 Z"/><path id="Path" d="M35.403,7.325 C34.29,7.325 33.274,7.702 32.355,8.457 C31.436,9.212 30.716,10.263 30.195,11.609 C29.673,12.956 29.412,14.419 29.412,15.998 C29.412,17.261 29.742,18.243 30.403,18.943 C31.063,19.644 31.975,19.994 33.138,19.994 C33.853,19.994 34.529,19.895 35.165,19.698 C35.8,19.5 36.426,19.269 37.043,19.002 L37.043,21.119 C35.81,21.74 34.439,22.051 32.929,22.051 C31.001,22.051 29.506,21.524 28.443,20.467 C27.38,19.412 26.849,17.922 26.849,15.998 C26.849,14.024 27.216,12.204 27.951,10.536 C28.687,8.869 29.702,7.569 30.999,6.636 C32.296,5.704 33.754,5.238 35.373,5.238 C36.735,5.238 38.066,5.49 39.367,5.993 L38.667,8.08 C37.475,7.576 36.387,7.325 35.403,7.325 Z"/><path id="Path" d="M21.171,21.755 L18.637,21.755 L20.842,11.514 C21.041,10.487 21.141,9.777 21.141,9.382 C21.141,8.76 20.964,8.262 20.611,7.888 C20.259,7.513 19.695,7.325 18.92,7.325 C18.035,7.325 17.174,7.621 16.334,8.213 C15.495,8.805 14.754,9.648 14.114,10.743 C13.473,11.838 12.988,13.166 12.661,14.725 L11.155,21.755 L8.651,21.755 L12.139,5.534 L14.211,5.534 L13.883,8.538 L14.032,8.538 C14.985,7.335 15.907,6.484 16.796,5.986 C17.686,5.487 18.607,5.238 19.561,5.238 C20.823,5.238 21.819,5.581 22.549,6.267 C23.279,6.952 23.644,7.912 23.644,9.145 C23.644,9.925 23.53,10.813 23.302,11.81 L21.171,21.755 Z"/><polygon id="Path" points=".723 21.755 5.358 .117 7.862 .117 3.226 21.755"/></g><g id="Ali" fill="#FF1717"><polygon id="Path" points="48.645 10.902 57.128 10.902 57.128 38.003 48.645 38.003"/><path id="Path" d="M55.23,8.516 L50.543,8.516 C49.495,8.516 48.645,7.68 48.645,6.649 L48.645,2.864 C48.645,1.832 49.495,0.997 50.543,0.997 L55.23,0.997 C56.278,0.997 57.128,1.832 57.128,2.864 L57.128,6.649 C57.128,7.68 56.278,8.516 55.23,8.516 Z"/><polygon id="Path" points="34.563 1.204 43.047 1.204 43.047 38.003 34.563 38.003"/><path id="Combined-Shape" d="M21.281,30.451 L10.233,30.451 C9.732,32.344 9.373,33.703 9.283,34.047 C8.847,35.715 8.386,37.971 5.697,37.971 C3.745,37.971 0.001,37.971 0.001,37.971 L12.184,1.204 L21.202,1.204 L32.805,37.971 L23.628,37.971 L21.281,30.451 Z M15.306,11.313 C15.306,11.313 13.555,17.918 11.937,24.022 L19.274,24.022 L15.306,11.313 Z"/></g></g></g></svg>