<svg xmlns="http://www.w3.org/2000/svg" xmlns:xlink="http://www.w3.org/1999/xlink" preserveAspectRatio="xMidYMid" width="20" height="17" viewBox="0 0 20 17">
  <path d="M10.917,0.002 C8.702,-0.019 6.610,0.826 5.027,2.381 C4.507,2.894 4.059,3.464 3.698,4.076 C3.141,5.007 2.788,6.070 2.640,7.152 L1.968,3.965 C1.854,3.424 1.324,3.079 0.783,3.193 C0.242,3.306 -0.104,3.837 0.011,4.378 L1.155,9.801 C1.214,10.078 1.387,10.318 1.633,10.461 C1.879,10.603 2.174,10.633 2.444,10.545 L7.712,8.824 C7.957,8.744 8.149,8.580 8.268,8.373 C8.405,8.136 8.444,7.844 8.353,7.563 C8.181,7.038 7.617,6.751 7.091,6.923 L4.572,7.746 C4.651,6.815 4.961,5.864 5.420,5.093 C5.693,4.630 6.033,4.197 6.430,3.807 C7.630,2.627 9.217,1.987 10.899,2.002 C12.581,2.017 14.156,2.687 15.336,3.889 C16.515,5.088 17.155,6.676 17.140,8.358 C17.125,10.040 16.458,11.614 15.255,12.791 C13.393,14.623 10.554,15.113 8.189,14.010 C7.689,13.777 7.091,14.000 6.860,14.493 C6.626,14.994 6.844,15.589 7.344,15.822 C10.461,17.276 14.204,16.631 16.656,14.218 C17.204,13.681 17.667,13.082 18.040,12.436 C18.745,11.215 19.127,9.825 19.140,8.376 C19.160,6.158 18.315,4.067 16.762,2.487 C15.209,0.905 13.134,0.022 10.917,0.002 Z" class="svg-reload"/>
</svg>
