<svg xmlns="http://www.w3.org/2000/svg" preserveAspectRatio="xMidYMid" width="20" height="20"><path d="M17.986 19.986h-16a2 2 0 0 1-2-2v-14a2 2 0 0 1 2-2h2v-1a1 1 0 1 1 2 0v1h3v-1a1 1 0 1 1 2 0v1h3v-1a1 1 0 1 1 2 0v1h2a2 2 0 0 1 2 2v14a2 2 0 0 1-2 2zm0-16h-2v1a1 1 0 1 1-2 0v-1h-3v1a1 1 0 1 1-2 0v-1h-3v1a1 1 0 1 1-2 0v-1h-2v14h16v-14zm-11.561 6h-3v-2h3v2zm0 3h-3v-2h3v2zm0 3h-3v-2h3v2zm5-6h-3v-2h3v2zm0 3h-3v-2h3v2zm0 3h-3v-2h3v2zm5-6h-3v-2h3v2zm0 3h-3v-2h3v2zm0 3h-3v-2h3v2z" fill="#898e97" fill-rule="evenodd"/></svg>